<?xml version="1.0" standalone="no"?>
<!DOCTYPE svg PUBLIC "-//W3C//DTD SVG 20010904//EN"
 "http://www.w3.org/TR/2001/REC-SVG-20010904/DTD/svg10.dtd">
<svg version="1.0" xmlns="http://www.w3.org/2000/svg"
 width="400.000000pt" height="400.000000pt" viewBox="0 0 400.000000 400.000000"
 preserveAspectRatio="xMidYMid meet">
<metadata>
Created by potrace 1.11, written by Peter Selinger 2001-2013
</metadata>
<g transform="translate(0.000000,400.000000) scale(0.100000,-0.100000)"
fill="#000000" stroke="none">
<path d="M2739 3352 c-52 -23 -110 -101 -115 -154 -5 -55 -85 -130 -133 -124
-39 4 -56 18 -88 73 -33 57 -58 66 -163 58 -110 -8 -117 -10 -137 -48 -8 -18
-19 -34 -22 -37 -26 -21 -51 -94 -51 -147 0 -106 -43 -129 -184 -97 -44 10
-82 17 -84 16 -5 -4 -42 39 -42 48 0 4 -13 24 -30 45 -16 21 -30 35 -30 31 0
-4 -9 2 -20 12 -12 11 -39 27 -60 37 -22 10 -40 21 -40 26 0 4 -18 5 -41 3
-27 -4 -39 -2 -34 5 3 7 -2 11 -14 11 -12 0 -21 3 -21 8 0 13 -81 43 -130 49
-67 8 -113 -11 -160 -64 l-40 -46 -43 13 c-23 8 -49 14 -57 13 -122 -2 -106 5
-197 -90 -45 -49 -83 -91 -83 -95 0 -5 -6 -8 -14 -8 -7 0 -19 -7 -26 -15 -7
-8 -16 -13 -20 -10 -10 6 -63 -63 -56 -74 3 -4 -3 -17 -13 -28 -11 -12 -19
-35 -19 -59 0 -21 -5 -59 -11 -84 -15 -73 -13 -161 6 -182 9 -10 13 -18 9 -18
-12 0 83 -79 114 -95 36 -18 43 -38 30 -86 -17 -60 -28 -219 -19 -252 5 -18 4
-37 -2 -49 -24 -44 -122 -157 -132 -151 -5 3 -7 2 -4 -4 3 -5 -16 -32 -43 -58
-28 -27 -50 -45 -50 -41 0 5 -12 -9 -27 -30 -27 -38 -28 -44 -28 -165 l0 -127
52 -55 c59 -62 61 -70 68 -242 4 -98 20 -334 24 -342 8 -17 52 -53 65 -53 9 0
16 -4 16 -8 0 -4 42 -7 94 -7 76 1 99 5 121 21 75 53 80 55 115 49 69 -12 88
-8 129 24 40 32 45 33 154 38 61 2 125 9 141 14 16 5 45 9 65 9 20 0 52 5 72
10 19 5 69 12 110 14 41 2 88 9 104 16 17 6 31 10 31 8 1 -2 10 4 20 13 57 50
126 62 178 30 79 -48 129 -35 229 58 92 86 149 94 222 29 31 -27 47 -32 113
-38 42 -4 110 -15 149 -25 57 -13 108 -16 236 -13 155 3 165 4 199 28 20 13
34 28 32 32 -3 5 5 12 18 17 37 14 88 119 99 203 10 80 33 127 70 145 14 7 59
13 99 14 68 1 76 4 109 35 33 30 36 36 34 87 -3 116 -105 237 -200 237 -61 0
-77 26 -109 174 -18 83 -47 126 -85 126 -11 0 -19 4 -19 9 0 5 -6 8 -12 8 -15
-1 -90 19 -131 35 -71 28 -71 98 -1 175 25 26 48 57 53 68 7 16 7 103 0 113
-2 3 -3 7 -12 54 -9 42 -54 86 -97 94 -75 16 -106 99 -56 149 32 32 67 40 119
27 41 -11 151 1 243 27 20 6 36 5 42 -1 6 -6 12 -6 16 1 4 6 14 11 22 11 8 0
13 -4 9 -10 -3 -5 8 -7 26 -5 36 4 46 16 55 63 3 17 10 32 14 32 4 0 10 12 13
28 3 15 8 39 11 54 5 24 -1 35 -45 78 -28 27 -56 50 -63 50 -6 0 -17 9 -24 20
-7 11 -23 20 -36 20 -14 0 -28 5 -32 11 -3 6 -9 7 -13 3 -13 -19 -50 -32 -103
-39 -54 -7 -57 -6 -84 24 -15 18 -34 29 -41 27 -15 -6 -41 42 -36 67 3 9 -1
17 -8 17 -7 0 -10 3 -7 6 8 7 -86 94 -101 94 -6 0 -11 4 -11 9 0 18 -113 36
-141 23z m69 -69 c12 -17 7 -55 -8 -61 -4 -2 -6 -11 -3 -21 2 -9 -7 -61 -20
-115 l-25 -97 36 5 c21 3 66 8 102 12 36 4 74 9 85 10 65 10 314 24 333 19 19
-5 22 -12 22 -50 0 -24 -5 -47 -11 -51 -6 -3 -57 -8 -112 -10 -110 -5 -270
-19 -382 -33 -51 -7 -72 -7 -77 2 -7 11 -12 2 -9 -15 0 -5 -3 -8 -8 -8 -5 0
-14 -36 -22 -80 -7 -44 -16 -80 -20 -80 -5 0 -6 -7 -3 -15 4 -9 -4 -24 -17
-36 -17 -14 -20 -22 -11 -25 6 -3 12 -21 12 -40 0 -20 -3 -33 -7 -31 -5 3 -8
-20 -9 -51 0 -31 -5 -57 -11 -59 -5 -2 -8 -16 -6 -31 4 -26 4 -26 -11 -8 -9
11 -19 17 -22 13 -4 -4 3 -15 14 -26 15 -13 22 -29 21 -52 -2 -30 -2 -31 -6
-6 -2 15 -11 27 -19 27 -8 0 -14 4 -14 10 0 12 -42 8 -53 -5 -5 -5 -5 5 -2 23
5 24 3 32 -8 32 -21 0 -28 -12 -16 -26 6 -7 9 -19 6 -26 -4 -9 -6 -9 -6 2 -1
17 -41 46 -41 30 0 -30 -23 -52 -46 -43 -12 4 -15 3 -10 -5 4 -7 3 -12 -3 -12
-5 0 -17 -7 -25 -16 -9 -8 -16 -10 -16 -4 0 6 7 13 15 16 8 4 13 10 10 14 -3
4 5 19 16 34 11 14 18 26 14 26 -3 0 -1 9 5 20 13 24 36 26 48 4 11 -21 61 -9
58 14 -2 9 -9 18 -17 20 -8 3 -17 10 -21 16 -5 7 -8 4 -8 -8 0 -15 -3 -16 -15
-6 -10 9 -15 9 -15 1 0 -6 -4 -11 -10 -11 -5 0 1 21 14 48 13 26 34 77 46 115
18 51 28 66 39 62 9 -2 23 0 31 5 8 5 13 10 10 11 -34 6 -43 8 -48 14 -4 4 4
5 18 3 14 -2 29 -13 35 -26 5 -12 15 -20 22 -18 7 3 10 -1 7 -8 -3 -7 2 -13
10 -13 8 0 20 14 26 30 14 41 13 46 -9 40 -10 -3 -22 1 -26 8 -5 8 -4 10 3 5
7 -4 12 -3 12 2 0 5 -9 12 -20 15 -11 3 -18 1 -14 -4 3 -5 -6 -9 -20 -9 -14 0
-26 6 -26 13 0 23 12 57 19 53 4 -3 8 4 8 15 2 17 -4 19 -40 17 -23 -2 -44 -6
-47 -10 -4 -4 -20 -10 -37 -14 -26 -5 -34 -2 -48 20 -14 22 -15 29 -4 42 7 8
8 14 2 12 -6 -2 -12 2 -14 7 -3 14 79 43 147 50 33 4 62 9 66 11 11 7 61 186
84 298 6 34 26 48 58 42 17 -4 37 -14 44 -23z m-549 -137 c6 -7 -8 -73 -40
-191 -27 -99 -48 -186 -47 -194 2 -8 17 9 35 37 38 61 80 93 94 71 6 -10 9
-10 9 -1 0 15 32 16 48 0 18 -18 15 -68 -4 -68 -8 0 -12 -4 -9 -10 3 -5 1 -10
-4 -10 -6 0 -12 -10 -12 -22 -1 -17 -2 -19 -6 -6 -5 19 -10 16 -41 -24 -12
-15 -11 -17 7 -15 11 0 19 6 18 11 -1 6 7 10 18 11 13 0 19 6 17 18 -2 9 3 17
11 17 11 0 12 -13 4 -72 -5 -40 -14 -76 -21 -80 -8 -5 -7 -8 3 -8 9 0 12 -9 8
-32 -4 -18 -7 -60 -8 -93 -2 -35 -9 -66 -18 -77 -14 -16 -16 -16 -33 -1 -10 9
-18 12 -18 7 0 -5 -9 -15 -21 -22 -20 -13 -20 -12 -17 88 2 55 0 100 -4 100
-4 0 -14 -21 -22 -47 -8 -27 -27 -79 -41 -118 -15 -38 -32 -89 -37 -112 -10
-47 -23 -55 -31 -22 -4 13 -10 19 -19 14 -7 -4 0 5 16 20 21 20 26 29 17 35
-9 5 -10 10 -2 14 6 4 11 1 11 -6 0 -9 3 -9 10 2 7 11 5 19 -10 31 -10 9 -16
20 -12 24 4 5 0 6 -9 2 -9 -3 -21 -1 -27 5 -6 6 -12 6 -16 -1 -4 -6 -2 -11 4
-11 6 0 8 -5 5 -10 -4 -6 -13 -4 -23 7 -16 15 -17 15 -20 0 -2 -9 2 -25 7 -36
14 -26 14 -52 0 -28 -10 18 -11 18 -25 0 -13 -16 -14 -13 -10 32 15 140 19
165 27 165 5 0 6 6 3 14 -10 27 56 337 112 523 17 57 29 83 42 85 27 5 70 -3
81 -16z m-951 -42 c26 -18 29 -58 9 -107 -8 -18 -19 -60 -27 -94 -7 -35 -17
-63 -22 -63 -5 0 -7 -4 -3 -10 3 -5 -4 -56 -15 -112 -42 -208 -66 -465 -46
-485 4 -4 14 1 22 11 8 11 14 16 14 12 0 -4 5 -4 11 0 8 5 8 9 -1 14 -9 5 -8
11 2 21 22 22 84 210 113 339 26 119 29 123 73 115 20 -3 41 -11 46 -16 6 -5
5 -39 -2 -86 -31 -211 -38 -443 -13 -443 21 0 41 42 47 95 26 250 110 432 231
497 67 37 120 43 134 17 22 -42 7 -72 -48 -99 -61 -29 -93 -64 -134 -142 -40
-78 -59 -158 -59 -244 0 -79 13 -104 54 -104 32 0 59 29 87 94 13 31 30 56 39
56 12 0 12 2 2 9 -11 6 -9 24 7 92 11 46 23 100 26 119 12 65 15 70 45 70 15
0 38 -8 50 -18 l22 -18 -16 -94 c-9 -52 -17 -102 -17 -110 -2 -43 -22 -141
-28 -132 -3 5 -6 -20 -7 -56 0 -37 -9 -111 -18 -165 -18 -97 -31 -121 -28 -52
1 19 -3 35 -8 35 -6 0 -10 7 -10 16 0 8 5 12 10 9 14 -8 12 7 -3 26 -9 13 -18
14 -37 7 l-25 -10 23 -11 c28 -13 28 -20 -3 -37 -13 -7 -26 -20 -29 -29 -2 -9
-2 7 1 34 3 28 9 55 14 61 5 6 6 14 2 17 -3 4 -2 7 4 7 6 0 13 7 17 15 4 12 2
13 -13 6 -12 -7 -21 -7 -28 0 -14 14 -63 0 -63 -17 0 -8 -7 -14 -15 -14 -8 0
-15 7 -15 15 0 8 6 15 13 15 6 0 -1 7 -17 15 -34 18 -36 18 -36 4 0 -5 6 -7
13 -3 8 5 8 2 -2 -9 -21 -26 -31 -20 -25 13 5 24 3 30 -10 30 -10 0 -14 5 -11
10 3 6 0 10 -9 10 -8 0 -16 6 -19 13 -2 6 -4 0 -4 -15 -1 -29 -18 -58 -35 -58
-5 0 -6 5 -3 10 4 6 -5 10 -24 8 -16 -1 -28 -5 -25 -9 2 -4 -4 -13 -13 -20
-14 -12 -16 -12 -11 2 5 12 0 17 -17 17 -16 0 -22 -5 -18 -14 3 -8 0 -14 -6
-14 -6 0 -11 5 -11 11 0 6 -7 3 -16 -5 -8 -9 -19 -16 -24 -16 -11 0 -23 57
-15 70 8 13 -12 40 -29 40 -6 0 -3 -7 7 -14 14 -11 15 -15 4 -19 -8 -3 -19 -1
-24 4 -6 6 -22 7 -38 3 -18 -4 -23 -9 -14 -14 6 -5 9 -15 6 -25 -4 -9 -11 -14
-16 -10 -6 3 -15 -4 -21 -15 -9 -16 -15 -18 -30 -10 -11 6 -20 7 -20 3 0 -4
-4 -2 -9 5 -6 11 -13 7 -30 -14 -11 -14 -21 -23 -21 -18 0 5 -3 20 -7 33 -5
18 -3 22 7 16 9 -5 11 -4 6 4 -4 6 -11 9 -16 6 -12 -7 -18 43 -7 54 8 8 7 11
-2 11 -11 0 -13 25 -8 133 3 72 9 143 12 157 3 14 8 50 11 80 l5 55 -16 -35
c-9 -19 -23 -53 -30 -75 -122 -359 -119 -352 -140 -349 -11 2 -21 7 -23 13 -5
14 -32 2 -32 -14 0 -17 -40 -7 -47 11 -8 21 -22 17 -33 -8 -13 -29 -3 222 14
375 7 59 9 107 6 107 -4 0 -15 -17 -24 -39 -27 -59 -73 -124 -80 -113 -3 6 0
12 6 15 10 3 9 9 -4 23 -21 24 -23 35 -8 44 9 6 7 13 -8 28 -17 17 -18 21 -5
26 8 3 13 12 10 19 -8 22 140 273 168 283 8 4 13 10 10 15 -8 12 37 33 65 30
41 -5 49 -17 39 -59 -17 -66 -58 -322 -64 -390 -3 -37 -8 -80 -10 -97 l-4 -30
13 25 c8 14 25 59 39 100 56 165 144 357 204 444 69 100 93 114 141 80z m211
-103 c9 -6 12 -20 8 -47 -4 -22 -9 -56 -12 -77 -10 -64 -21 -82 -49 -85 -14
-1 -26 2 -26 7 0 5 -9 7 -20 4 -17 -4 -20 0 -20 23 0 31 18 151 25 172 5 14
73 16 94 3z m1120 -281 c10 0 18 -6 18 -14 0 -9 -6 -12 -16 -8 -18 6 -31 22
-30 37 0 6 3 4 6 -2 2 -7 13 -13 22 -13z m-1967 -77 c-5 -10 -8 -23 -6 -28 2
-6 -5 -16 -16 -23 l-21 -13 21 41 c11 22 23 40 26 40 2 0 1 -8 -4 -17z m24
-13 c0 -20 -7 -25 -19 -13 -4 3 -2 12 4 20 15 17 15 17 15 -7z m2248 -150 c23
-23 15 -38 -50 -91 -27 -22 -86 -77 -131 -121 -51 -50 -80 -72 -76 -59 3 12
10 21 16 21 6 0 0 8 -13 17 -14 10 -29 18 -35 18 -22 0 -15 39 11 66 21 22 30
26 41 17 7 -6 16 -8 20 -4 3 3 1 6 -5 6 -26 0 -9 31 41 73 103 88 137 99 181
57z m-707 -157 c-3 -10 -5 -4 -5 12 0 17 2 24 5 18 2 -7 2 -21 0 -30z m-1407
-113 c0 -5 -4 -10 -10 -10 -5 0 -10 5 -10 10 0 6 5 10 10 10 6 0 10 -4 10 -10z
m452 -42 c-7 -7 -12 -8 -12 -2 0 6 3 14 7 17 3 4 9 5 12 2 2 -3 -1 -11 -7 -17z
m391 -38 c16 -19 16 -20 -3 -20 -13 0 -20 7 -20 20 0 11 1 20 3 20 1 0 10 -9
20 -20z m110 -147 c-6 -2 -10 -15 -7 -28 2 -13 0 -27 -6 -30 -6 -4 -10 7 -10
28 0 37 7 50 23 40 8 -5 8 -8 0 -10z m1302 1 c24 -10 47 -61 36 -82 -5 -9 -12
-45 -16 -79 -7 -60 -18 -76 -47 -70 -7 2 -3 -1 10 -7 22 -10 31 -46 11 -46 -6
0 -9 6 -6 14 4 10 -4 13 -33 12 -23 -1 -36 -5 -33 -12 5 -15 54 -38 72 -35 13
2 13 0 1 -14 -10 -12 -15 -13 -21 -3 -4 7 -11 9 -16 5 -10 -10 16 -27 33 -20
8 3 11 -4 10 -21 -4 -31 8 -32 77 -11 66 20 167 27 168 12 0 -9 2 -8 6 1 7 18
69 15 88 -4 23 -24 16 -78 -10 -81 -36 -3 -97 -12 -115 -18 -10 -3 -22 -1 -25
6 -5 7 -10 7 -14 1 -3 -5 -42 -19 -85 -30 -68 -18 -81 -18 -93 -6 -21 21 -29
17 -10 -4 25 -27 22 -72 -3 -72 -11 0 -20 -5 -20 -11 0 -5 -5 -7 -10 -4 -10 6
-45 -22 -45 -36 0 -4 -4 -11 -8 -16 -5 -4 -8 -3 -7 2 1 6 2 23 1 38 -1 25 -3
27 -23 16 -13 -7 -27 -19 -32 -27 -8 -13 -11 -13 -23 4 -11 16 -15 17 -23 5
-7 -12 -11 -12 -24 -2 -9 8 -16 20 -16 27 0 15 -12 19 -23 8 -4 -4 6 -18 21
-32 l27 -25 -27 16 c-19 12 -29 14 -34 5 -4 -7 -3 -8 4 -4 17 10 15 -3 -3 -20
-11 -11 -15 -12 -15 -3 0 10 -3 10 -12 1 -10 -10 -10 -17 0 -32 7 -12 8 -21 2
-25 -6 -3 -10 1 -10 9 0 9 -4 16 -10 16 -5 0 -7 -6 -4 -14 3 -7 -2 -16 -10
-19 -22 -9 -20 1 14 59 36 64 107 134 165 164 43 22 43 22 49 90 6 54 10 68
22 63 8 -3 14 1 14 11 0 9 -6 15 -12 14 -8 -2 -12 7 -11 25 1 16 -2 27 -7 25
-10 -4 -76 -102 -168 -248 -36 -58 -69 -106 -74 -108 -4 -2 -8 -10 -8 -18 0
-26 -44 -80 -62 -76 -16 3 -16 5 0 23 9 10 22 19 29 19 20 0 15 13 -14 34 -24
18 -28 18 -54 4 -26 -16 -26 -15 13 56 75 133 171 276 181 269 6 -3 7 -1 3 5
-8 13 10 43 86 143 64 84 81 101 123 123 35 19 29 17 50 10z m-1227 -39 c-3
-3 -9 2 -12 12 -6 14 -5 15 5 6 7 -7 10 -15 7 -18z m-752 -10 c40 -17 40 -11
8 -178 -15 -76 -14 -123 1 -82 30 78 92 192 124 225 40 42 73 50 112 29 18 -9
20 -17 15 -57 -3 -26 -7 -64 -8 -84 -1 -21 -5 -38 -8 -38 -3 0 -5 -24 -5 -53
-1 -79 -28 -387 -34 -387 -3 0 -4 -27 -3 -60 3 -50 1 -60 -13 -60 -12 0 -15 7
-11 30 2 19 0 30 -7 30 -7 0 -3 7 7 15 26 20 9 33 -29 24 -16 -3 -22 -7 -12
-8 21 -1 22 -10 2 -37 -8 -12 -11 -24 -7 -28 3 -4 0 -5 -8 -1 -11 4 -15 -2
-16 -20 -1 -14 1 -23 5 -20 4 2 3 -12 -3 -31 l-11 -36 -3 44 c-4 45 14 360 25
437 12 86 -15 32 -77 -156 -34 -104 -64 -190 -67 -193 -2 -2 -9 2 -14 10 -9
12 -10 12 -5 -2 3 -10 1 -18 -5 -18 -6 0 -8 -13 -5 -32 4 -20 3 -26 -2 -15 -7
17 -9 16 -21 -6 -7 -14 -22 -28 -32 -30 -24 -6 -25 -27 -1 -27 14 0 15 -2 2
-10 -20 -13 -33 -13 -25 0 3 6 2 10 -4 10 -17 0 -23 -20 -11 -35 12 -15 1 -15
-32 0 -27 11 -26 25 22 350 10 66 16 122 14 124 -12 12 -204 -537 -204 -583 0
-7 -6 -21 -14 -32 -14 -19 -14 -19 -13 1 1 11 7 23 12 27 9 7 -17 13 -39 9 -5
-1 -6 8 -3 19 5 19 2 21 -19 16 -24 -6 -30 4 -24 43 1 10 -3 10 -16 -3 -12
-13 -14 -20 -5 -29 16 -16 14 -27 -5 -27 -8 0 -13 -4 -9 -9 3 -5 1 -12 -5 -16
-18 -11 -13 75 15 283 1 12 6 50 10 85 12 109 45 272 55 275 6 2 7 8 4 14 -3
5 -14 2 -25 -8 -18 -16 -20 -16 -37 -1 -23 21 -29 21 -29 2 0 -9 6 -14 12 -11
6 2 17 -5 24 -15 10 -17 8 -24 -7 -44 -11 -13 -22 -21 -26 -17 -4 3 -4 0 -1
-9 3 -8 -1 -23 -9 -34 -14 -19 -15 -19 -33 13 -16 28 -31 37 -56 33 -16 -3 80
158 142 240 87 112 116 128 162 90 l24 -19 -18 -85 c-9 -46 -17 -94 -17 -105
0 -12 -8 -26 -17 -31 -11 -7 -13 -11 -5 -11 9 0 12 -10 8 -32 -3 -18 -10 -60
-16 -93 -5 -33 -10 -69 -9 -80 0 -22 6 -11 36 70 8 22 21 54 28 70 8 17 29 66
48 110 40 94 71 147 80 140 4 -3 5 -2 2 1 -9 13 78 144 96 144 5 0 26 -7 45
-15z m1520 -31 c46 -22 79 -91 77 -164 -3 -101 -54 -260 -84 -260 -6 0 -8 -4
-5 -8 6 -10 -55 -70 -96 -95 -16 -10 -29 -13 -33 -7 -3 6 -2 10 3 10 5 0 7 10
5 23 -3 16 -12 22 -31 23 -15 1 -21 -1 -14 -3 17 -6 15 -33 -2 -33 -8 0 -17
-6 -19 -12 -3 -8 -6 -5 -6 5 -1 10 -7 17 -13 14 -8 -2 -12 -18 -11 -41 2 -26
-1 -36 -10 -33 -6 2 -17 -8 -24 -22 -11 -25 -11 -25 -12 -3 -1 19 -6 22 -45
22 -29 0 -55 8 -77 23 -61 41 -60 41 -54 15 6 -23 4 -25 -29 -23 -20 0 -36 -2
-37 -5 0 -3 -2 -13 -4 -22 -2 -10 1 -18 6 -18 5 0 9 5 9 11 0 8 5 8 15 -1 12
-10 15 -10 15 4 0 9 5 16 11 16 7 0 8 -7 4 -17 -3 -10 -9 -30 -12 -46 -8 -39
-18 -41 -47 -10 -14 15 -26 22 -26 15 0 -6 6 -12 13 -13 6 0 2 -5 -10 -11 -13
-6 -23 -17 -23 -23 0 -7 -9 -15 -20 -18 -11 -3 -19 -11 -18 -19 2 -7 -3 -12
-9 -11 -7 2 -13 -2 -13 -7 0 -6 -7 -10 -15 -10 -20 0 -19 19 0 27 9 3 22 18
31 34 8 16 22 29 30 29 13 0 14 3 4 15 -6 8 -9 19 -5 24 16 28 95 372 110 484
3 26 11 47 17 47 7 0 6 5 -2 15 -6 8 -9 23 -5 35 10 31 79 28 101 -5 9 -14 13
-33 9 -44 -12 -40 -31 -241 -23 -253 4 -7 8 -24 8 -38 0 -31 35 -90 54 -90 10
0 15 22 21 85 4 47 10 83 14 81 4 -3 5 11 3 29 -5 42 32 167 62 211 23 34 60
67 86 77 30 11 93 7 126 -9z m-779 -76 c-3 -7 -5 -2 -5 12 0 14 2 19 5 13 2
-7 2 -19 0 -25z m147 -24 c22 -8 20 -56 -8 -189 -17 -83 -23 -147 -24 -255 0
-92 -5 -146 -11 -148 -6 -2 -11 4 -11 13 0 10 5 14 13 10 6 -4 1 3 -13 14 -30
25 -46 26 -54 5 -5 -13 -1 -15 18 -12 19 4 24 1 23 -14 -1 -13 -6 -16 -21 -12
-15 5 -13 0 9 -19 17 -15 25 -27 19 -27 -7 0 -15 8 -18 17 -5 12 -9 14 -18 5
-20 -20 -26 -14 -37 38 -19 88 -13 255 13 396 32 170 38 184 75 184 16 0 36
-3 45 -6z m-373 -35 c11 -5 17 -14 14 -19 -3 -5 -1 -12 5 -15 15 -9 3 -41 -34
-90 -41 -52 -80 -149 -100 -240 -16 -78 -23 -181 -13 -192 4 -3 7 -13 7 -22
-1 -11 -6 -8 -16 9 -8 14 -13 17 -10 8 3 -10 1 -18 -4 -18 -13 0 -13 23 1 37
7 7 6 12 -5 16 -12 5 -16 0 -16 -16 0 -16 -3 -18 -9 -8 -7 11 -10 10 -18 -4
-13 -22 -20 -21 -42 4 -19 21 -37 29 -26 11 3 -5 -1 -20 -9 -32 -19 -27 -20
-19 -5 33 7 21 16 36 22 32 6 -3 8 -2 4 3 -7 13 38 219 63 287 33 89 131 227
160 227 6 0 20 -5 31 -11z m169 -204 c10 -11 11 -36 6 -93 -4 -42 -8 -83 -9
-89 0 -7 -9 -13 -19 -13 -10 0 -18 -7 -18 -15 0 -18 16 -20 23 -2 13 30 6 -30
-9 -81 -20 -69 -41 -112 -55 -112 -6 0 -8 4 -4 10 3 5 -3 18 -15 30 -24 24
-25 30 -5 30 8 0 15 4 15 8 0 11 -22 32 -34 32 -5 0 -7 -3 -3 -6 3 -4 0 -19
-8 -34 -12 -23 -12 -30 1 -49 18 -25 7 -28 -13 -3 -11 12 -16 14 -20 4 -2 -7
-11 -19 -20 -27 -8 -8 -12 -23 -8 -34 4 -15 1 -18 -21 -15 -16 1 -24 -2 -21
-9 3 -8 -9 -13 -30 -15 -21 -1 -32 2 -28 8 3 5 1 10 -4 10 -6 0 -11 9 -11 20
0 23 25 27 34 5 15 -41 69 5 114 99 17 34 33 78 36 99 4 22 13 37 21 37 8 0
17 5 21 12 5 8 2 9 -9 5 -10 -3 -17 -5 -17 -2 0 23 24 163 30 181 11 28 60 33
80 9z m1298 -200 c-2 -8 -8 -11 -14 -7 -8 5 -9 14 -1 32 8 20 11 22 14 8 3
-10 3 -25 1 -33z m-617 -2 c7 -10 9 -15 5 -11 -5 4 -15 0 -22 -10 -11 -15 -12
-14 -11 11 2 31 9 34 28 10z m408 -27 c-28 -30 -39 -32 -39 -10 0 12 -7 15
-27 10 -20 -4 -17 0 12 13 22 10 43 16 48 14 4 -2 7 1 7 8 0 10 3 10 12 1 8
-8 5 -17 -13 -36z m-215 19 c3 -8 1 -15 -4 -15 -6 0 -10 7 -10 15 0 8 2 15 4
15 2 0 6 -7 10 -15z m390 -15 c8 -16 11 -30 7 -30 -4 0 -13 12 -20 27 -10 22
-14 24 -22 12 -7 -12 -9 -11 -9 4 0 28 27 20 44 -13z m-434 0 c-6 -11 -7 -20
-3 -20 9 0 -19 -20 -28 -20 -3 0 -6 7 -6 15 0 8 6 15 13 15 6 0 14 7 18 15 3
8 8 15 11 15 3 0 1 -9 -5 -20z m380 -10 c0 -5 -4 -10 -10 -10 -5 0 -10 5 -10
10 0 6 5 10 10 10 6 0 10 -4 10 -10z m-213 -55 c-7 -7 -16 -11 -22 -9 -13 5
-29 -6 -43 -31 l-11 -20 -1 20 c0 36 37 66 71 58 14 -4 15 -8 6 -18z m272 10
c12 4 21 2 21 -4 0 -10 -14 -15 -32 -12 -5 0 -8 -6 -8 -14 0 -9 -7 -18 -15
-21 -8 -4 -13 -10 -10 -14 3 -5 1 -11 -5 -15 -6 -4 -8 -10 -5 -15 5 -8 -33
-26 -47 -22 -4 1 -5 -5 -2 -13 4 -8 11 -12 17 -8 6 4 7 1 3 -6 -6 -9 -13 -8
-27 5 -10 9 -19 12 -19 7 0 -6 -11 -10 -24 -9 -24 1 -23 1 10 39 19 20 34 42
34 47 0 6 6 10 14 10 8 0 25 13 38 28 13 16 26 25 29 19 4 -5 16 -6 28 -2z
m-480 -2 c-11 -3 -14 -13 -12 -36 3 -22 2 -28 -5 -18 -5 7 -15 10 -21 7 -16
-10 -14 6 5 32 8 12 23 21 32 21 14 -1 15 -2 1 -6z m250 -33 c-11 -32 -26 -40
-26 -15 0 8 4 12 8 10 3 -3 9 4 12 15 3 11 8 20 11 20 3 0 0 -13 -5 -30z
m-434 11 c3 -5 1 -12 -5 -16 -5 -3 -10 1 -10 9 0 18 6 21 15 7z m85 -21 c0
-14 -28 -1 -34 16 -4 12 -2 12 14 4 11 -6 20 -15 20 -20z m177 8 c-3 -8 -6 -5
-6 6 -1 11 2 17 5 13 3 -3 4 -12 1 -19z m-25 -50 c-9 -9 -15 -9 -24 1 -11 10
-10 11 5 6 10 -5 17 -2 17 6 0 7 3 9 7 6 4 -4 1 -13 -5 -19z m163 12 c3 -5 1
-10 -4 -10 -6 0 -11 5 -11 10 0 6 2 10 4 10 3 0 8 -4 11 -10z m-1535 -20 c0
-5 -2 -10 -4 -10 -3 0 -8 5 -11 10 -3 6 -1 10 4 10 6 0 11 -4 11 -10z m1590
-33 c11 -4 9 -6 -5 -6 -22 -1 -45 16 -45 33 0 5 8 2 18 -6 9 -9 24 -18 32 -21z
m-1787 -17 c-3 -12 -8 -19 -11 -16 -5 6 5 36 12 36 2 0 2 -9 -1 -20z m-13 -46
c0 -8 -5 -14 -12 -14 -6 0 -8 3 -5 6 3 4 1 16 -5 28 -10 19 -10 20 5 7 10 -7
17 -20 17 -27z m1960 26 c0 -5 -2 -10 -4 -10 -3 0 -8 5 -11 10 -3 6 -1 10 4
10 6 0 11 -4 11 -10z m-1550 -20 c0 -5 -5 -10 -11 -10 -5 0 -7 5 -4 10 3 6 8
10 11 10 2 0 4 -4 4 -10z m1530 0 c0 -5 -2 -10 -4 -10 -2 0 -12 -3 -22 -7 -16
-6 -17 -5 -4 10 17 19 30 22 30 7z m-2366 -155 c-4 -8 -10 -15 -15 -15 -4 0
-6 7 -3 15 4 8 10 15 15 15 4 0 6 -7 3 -15z"/>
<path d="M2750 3241 c0 -5 7 -12 16 -15 14 -5 15 -4 4 9 -14 17 -20 19 -20 6z"/>
<path d="M2740 3189 c0 -5 5 -7 10 -4 6 3 10 8 10 11 0 2 -4 4 -10 4 -5 0 -10
-5 -10 -11z"/>
<path d="M2750 3141 c0 -5 5 -13 10 -16 6 -3 10 -2 10 4 0 5 -4 13 -10 16 -5
3 -10 2 -10 -4z"/>
<path d="M2672 2950 c7 -11 16 -20 20 -20 5 0 3 9 -4 20 -7 11 -16 20 -20 20
-5 0 -3 -9 4 -20z"/>
<path d="M2565 2940 c-3 -5 -1 -10 4 -10 6 0 11 5 11 10 0 6 -2 10 -4 10 -3 0
-8 -4 -11 -10z"/>
<path d="M2643 2937 c3 -16 37 -41 44 -33 4 3 1 6 -5 6 -7 0 -12 6 -12 14 0 8
-7 16 -15 20 -8 3 -14 0 -12 -7z"/>
<path d="M2610 2935 c-1 -5 -2 -13 -1 -17 0 -5 -3 -8 -9 -8 -5 0 -10 -4 -10
-10 0 -5 6 -10 14 -10 8 0 17 -6 19 -12 4 -9 5 -8 5 2 0 21 -16 67 -18 55z"/>
<path d="M2630 2906 c0 -7 46 -56 52 -56 3 0 5 7 5 15 0 8 -4 12 -8 9 -5 -3
-14 4 -21 16 -11 18 -28 27 -28 16z"/>
<path d="M2435 2870 c-3 -5 1 -10 9 -10 9 0 16 5 16 10 0 6 -4 10 -9 10 -6 0
-13 -4 -16 -10z"/>
<path d="M2575 2870 c3 -5 8 -10 11 -10 2 0 4 5 4 10 0 6 -5 10 -11 10 -5 0
-7 -4 -4 -10z"/>
<path d="M2607 2859 c7 -7 15 -10 18 -7 3 3 -2 9 -12 12 -14 6 -15 5 -6 -5z"/>
<path d="M2590 2496 c0 -17 16 -30 23 -19 3 5 -1 14 -9 21 -12 10 -14 10 -14
-2z"/>
<path d="M2565 2419 c-4 -6 -5 -12 -2 -15 2 -3 7 2 10 11 7 17 1 20 -8 4z"/>
<path d="M2258 2693 c7 -3 16 -2 19 1 4 3 -2 6 -13 5 -11 0 -14 -3 -6 -6z"/>
<path d="M2300 2620 c0 -5 5 -10 10 -10 6 0 10 5 10 10 0 6 -4 10 -10 10 -5 0
-10 -4 -10 -10z"/>
<path d="M1857 2806 c-3 -8 -2 -18 3 -21 13 -8 20 9 11 24 -6 10 -10 9 -14 -3z"/>
<path d="M890 2757 c0 -9 4 -18 9 -21 5 -4 8 1 7 9 -3 21 -16 31 -16 12z"/>
<path d="M1876 2327 c3 -10 9 -15 12 -12 3 3 0 11 -7 18 -10 9 -11 8 -5 -6z"/>
<path d="M924 2315 c-3 -8 -12 -15 -20 -15 -8 0 -11 -6 -8 -15 4 -8 10 -15 16
-15 5 0 6 5 2 11 -3 6 5 3 20 -6 24 -16 26 -16 20 -1 -3 9 -1 16 5 16 18 0 12
18 -9 30 -16 9 -22 8 -26 -5z"/>
<path d="M1307 2299 c4 -13 8 -18 11 -10 2 7 -1 18 -6 23 -8 8 -9 4 -5 -13z"/>
<path d="M920 2249 c0 -5 5 -7 10 -4 6 3 10 8 10 11 0 2 -4 4 -10 4 -5 0 -10
-5 -10 -11z"/>
<path d="M1845 2249 c-4 -6 -4 -13 -1 -16 3 -4 6 -1 6 6 0 7 5 9 10 6 6 -3 10
-1 10 4 0 14 -17 14 -25 0z"/>
<path d="M1130 2220 c0 -5 5 -10 11 -10 5 0 7 5 4 10 -3 6 -8 10 -11 10 -2 0
-4 -4 -4 -10z"/>
<path d="M1836 2207 c3 -10 9 -15 12 -12 3 3 0 11 -7 18 -10 9 -11 8 -5 -6z"/>
<path d="M1783 2185 c0 -8 4 -12 9 -9 5 3 6 10 3 15 -9 13 -12 11 -12 -6z"/>
<path d="M1867 2193 c-4 -3 -7 -11 -7 -17 0 -6 5 -5 12 2 6 6 9 14 7 17 -3 3
-9 2 -12 -2z"/>
<path d="M1830 2161 c0 -11 4 -23 10 -26 6 -4 9 5 8 19 -3 30 -18 35 -18 7z"/>
<path d="M1855 2120 c-3 -5 -1 -10 4 -10 6 0 11 5 11 10 0 6 -2 10 -4 10 -3 0
-8 -4 -11 -10z"/>
<path d="M1444 2891 c4 -5 1 -12 -4 -14 -6 -3 -5 -4 2 -3 15 3 23 26 8 26 -6
0 -9 -4 -6 -9z"/>
<path d="M1441 2859 c-30 -24 -23 -33 15 -19 25 9 27 8 12 -4 -10 -7 -18 -16
-18 -20 0 -11 18 -6 34 9 13 13 13 20 3 35 -15 24 -16 24 -46 -1z"/>
<path d="M2785 2370 c-3 -6 1 -7 9 -4 18 7 21 14 7 14 -6 0 -13 -4 -16 -10z"/>
<path d="M2746 2352 c-3 -6 -1 -14 5 -17 15 -10 25 3 12 16 -7 7 -13 7 -17 1z"/>
<path d="M2988 1869 c-10 -10 -18 -21 -18 -24 0 -2 8 -2 18 2 14 5 13 3 -3
-10 -17 -14 -18 -16 -3 -17 9 0 20 -5 23 -11 4 -6 1 -9 -7 -7 -7 2 -15 -1 -16
-7 -1 -5 8 -10 21 -11 31 -1 42 7 26 18 -11 8 -11 9 1 5 8 -2 14 -11 14 -20
-1 -13 2 -14 18 -4 15 9 15 13 4 15 -8 2 -12 10 -9 18 3 8 0 14 -7 14 -7 0 -9
8 -5 19 5 15 1 18 -20 13 -20 -3 -24 -1 -19 12 8 20 3 19 -18 -5z"/>
<path d="M3013 1671 c-9 -14 -8 -18 3 -18 7 0 11 4 8 8 -2 4 1 9 8 11 7 3 8 7
2 11 -5 3 -15 -2 -21 -12z"/>
<path d="M3388 1623 c7 -3 16 -2 19 1 4 3 -2 6 -13 5 -11 0 -14 -3 -6 -6z"/>
<path d="M3315 1590 c3 -5 10 -10 16 -10 5 0 9 5 9 10 0 6 -7 10 -16 10 -8 0
-12 -4 -9 -10z"/>
<path d="M3410 1591 c0 -6 4 -13 10 -16 6 -3 7 1 4 9 -7 18 -14 21 -14 7z"/>
<path d="M3232 1571 c-10 -6 -9 -11 4 -22 12 -9 15 -10 10 -1 -4 6 -2 12 3 12
6 0 11 5 11 10 0 12 -10 13 -28 1z"/>
<path d="M3060 1536 c0 -2 8 -10 18 -17 15 -13 16 -12 3 4 -13 16 -21 21 -21
13z"/>
<path d="M3026 1465 c-9 -26 -7 -32 5 -12 6 10 9 21 6 23 -2 3 -7 -2 -11 -11z"/>
<path d="M2703 1456 c0 -8 6 -12 14 -9 7 3 10 9 7 14 -8 14 -21 11 -21 -5z"/>
<path d="M2980 1454 c0 -8 5 -12 10 -9 6 3 10 10 10 16 0 5 -4 9 -10 9 -5 0
-10 -7 -10 -16z"/>
<path d="M2695 1421 c-19 -8 -19 -8 1 -19 17 -9 20 -7 21 9 1 10 1 19 0 18 -1
0 -11 -4 -22 -8z"/>
<path d="M2655 1410 c-3 -5 -1 -10 4 -10 6 0 11 5 11 10 0 6 -2 10 -4 10 -3 0
-8 -4 -11 -10z"/>
<path d="M1022 1870 c-29 -27 -28 -32 3 -18 14 6 25 17 25 25 0 17 -2 17 -28
-7z"/>
<path d="M1320 1850 c0 -5 5 -10 10 -10 6 0 10 5 10 10 0 6 -4 10 -10 10 -5 0
-10 -4 -10 -10z"/>
<path d="M1220 1724 c0 -8 5 -12 10 -9 6 4 8 11 5 16 -9 14 -15 11 -15 -7z"/>
<path d="M557 1602 c-23 -25 -21 -45 6 -61 21 -13 21 -13 7 4 -14 17 -13 18 2
13 10 -4 19 -1 22 7 7 19 -14 31 -25 14 -4 -7 -11 -11 -14 -7 -3 3 2 13 11 22
9 9 14 19 12 22 -3 2 -12 -4 -21 -14z"/>
<path d="M708 1603 c7 -3 16 -2 19 1 4 3 -2 6 -13 5 -11 0 -14 -3 -6 -6z"/>
<path d="M701 1114 c0 -11 3 -14 6 -6 3 7 2 16 -1 19 -3 4 -6 -2 -5 -13z"/>
<path d="M2207 1823 c-4 -3 -7 -11 -7 -17 0 -6 5 -5 12 2 6 6 9 14 7 17 -3 3
-9 2 -12 -2z"/>
<path d="M2521 1791 c-30 -30 -60 -124 -68 -213 -9 -94 -6 -128 9 -128 6 0 8
3 5 6 -4 4 15 30 41 59 66 72 102 197 78 273 -9 27 -39 29 -65 3z"/>
<path d="M2535 1510 c-3 -5 -1 -10 4 -10 6 0 11 5 11 10 0 6 -2 10 -4 10 -3 0
-8 -4 -11 -10z"/>
<path d="M2140 1439 c0 -5 5 -7 10 -4 6 3 10 8 10 11 0 2 -4 4 -10 4 -5 0 -10
-5 -10 -11z"/>
<path d="M1886 1427 c-5 -15 -6 -31 -2 -34 11 -11 18 5 14 34 l-4 28 -8 -28z"/>
<path d="M1915 1331 c-3 -5 -1 -12 5 -16 5 -3 10 1 10 9 0 18 -6 21 -15 7z"/>
<path d="M1730 1406 c0 -2 8 -10 18 -17 15 -13 16 -12 3 4 -13 16 -21 21 -21
13z"/>
<path d="M1700 1306 c0 -9 5 -16 10 -16 6 0 10 4 10 9 0 6 -4 13 -10 16 -5 3
-10 -1 -10 -9z"/>
<path d="M2960 1200 c0 -5 5 -10 11 -10 5 0 7 5 4 10 -3 6 -8 10 -11 10 -2 0
-4 -4 -4 -10z"/>
</g>
</svg>
